<?xml version="1.0" encoding="utf-8"?>
<!DOCTYPE svg PUBLIC "-//W3C//DTD SVG 1.0//EN" "http://www.w3.org/TR/2001/REC-SVG-20010904/DTD/svg10.dtd">
<svg version="1.0" xmlns="http://www.w3.org/2000/svg" width="394px" height="393px" viewBox="0 0 394 393" preserveAspectRatio="xMidYMid meet">
 <g fill="#3a2793">
  <path d="M67.5 385 c-5.3 -0.7 -10.1 -2.3 -19.5 -6.3 -1.4 -0.5 -2.8 -1 -3.2 -0.9 -0.5 0.1 -0.8 -0.2 -0.8 -0.7 0 -0.5 -1 -1.3 -2.2 -1.7 -1.2 -0.3 -3.3 -1.7 -4.7 -3 -1.4 -1.3 -3 -2.4 -3.6 -2.4 -0.6 0 -1.6 -0.9 -2.3 -2 -1.1 -1.9 -1 -2 2.3 -2 2.4 0 3.5 0.5 3.5 1.5 0 0.8 0.9 1.5 2 1.5 1.1 0 2 0.5 2 1 0 0.6 0.7 1 1.5 1 0.8 0 1.5 0.6 1.5 1.3 0 0.7 5.3 2.9 12.3 5.2 l12.2 4 122.2 0.3 c105.8 0.2 123.1 0 129 -1.3 10.6 -2.3 15.7 -3.9 17.1 -5.2 0.7 -0.7 2.4 -1.6 3.8 -1.9 1.3 -0.3 2.4 -1 2.4 -1.5 0 -0.5 0.9 -0.9 2 -0.9 1.1 0 2 -0.4 2 -1 0 -0.5 0.7 -1 1.5 -1 0.8 0 1.5 -0.4 1.5 -1 0 -0.5 1.4 -1 3 -1 2.5 0 3 -0.4 3 -2.5 0 -1.4 0.4 -2.5 0.8 -2.5 0.4 0 1.6 -1.3 2.5 -3 1 -1.7 2.7 -3 3.8 -3 1.4 0 1.9 -0.7 1.9 -2.5 0 -1.4 0.5 -2.5 1 -2.5 0.6 0 1 -0.7 1 -1.5 0 -0.9 0.6 -1.8 1.4 -2.1 0.8 -0.3 1.8 -1.9 2.1 -3.5 0.4 -1.6 1 -2.9 1.4 -2.9 0.7 0 2 -4.5 4.6 -16.3 1.4 -6 1.5 -22.9 1.3 -136.5 l-0.3 -129.7 -2.2 -6.5 c-2.3 -6.6 -3 -13 -1.5 -13 2.2 0 6 11.6 7.2 21.7 1.3 11.6 1.3 253.3 0 262.5 -1 6.8 -2.6 12.4 -5.7 19.4 -0.9 2.1 -1.6 4.2 -1.5 4.7 0.1 0.4 -0.2 0.7 -0.8 0.7 -0.5 0 -1 0.6 -1 1.3 0 0.8 -1.2 2.7 -2.6 4.3 -1.4 1.6 -3.6 4.5 -5 6.4 -1.3 1.9 -3.3 4.2 -4.6 5 -1.2 0.8 -3.2 2.5 -4.5 3.8 -1.3 1.2 -2.8 2.2 -3.3 2.2 -0.6 0 -1 0.5 -1 1 0 0.6 -0.5 1 -1.2 1 -0.6 0 -2.6 1.2 -4.5 2.6 -1.8 1.4 -8.2 4.2 -14.1 6.2 l-10.7 3.7 -123.5 0.1 c-67.9 0.1 -126.2 -0.2 -129.5 -0.6z"/>
  <path d="M65.8 365.3 c-2.7 -0.9 -4.8 -2 -4.8 -2.4 0 -0.5 -0.6 -0.9 -1.3 -0.9 -2.1 0 -6.4 -5.1 -8.6 -10.1 -3 -6.8 -3.7 -20.8 -1.7 -34.5 3 -20.2 6.9 -32.3 18.9 -57.9 10.2 -21.8 17 -47.8 18.4 -70.1 l0.6 -10.4 3.4 0 3.3 0 0 6.8 c0 23 -7.8 56.1 -18.6 79 -11.3 23.8 -15.8 36.9 -18.9 54.6 -2.8 16.2 -1.2 25.6 5.6 33.4 3.4 3.8 10.7 7.2 15.7 7.2 1.8 0 2.2 0.6 2.2 3.5 l0 3.5 -4.7 -0.1 c-2.7 0 -6.9 -0.7 -9.5 -1.6z"/>
  <path d="M94 363.8 c0 -3.4 0.1 -3.6 4.5 -4 12.2 -1.4 25.4 -13.1 25.5 -22.7 0 -4.8 -5.1 -13.6 -9.6 -16.5 -4.8 -3 -13.1 -6 -19.5 -7.1 -7.5 -1.2 -8.9 -2.6 -8.9 -9.4 0 -8.6 1.3 -9.5 13.9 -8.9 l9.9 0.5 0.4 -17.1 c0.4 -19.1 1.5 -23 8 -27.9 5.4 -3.9 9.3 -4.7 24.4 -4.7 l14.4 0 0 -2.5 c0 -3.5 1.9 -7.2 4.9 -9.2 2.3 -1.6 5.8 -1.8 29 -2.1 22.9 -0.3 27.1 -0.1 30.9 1.4 4.6 1.7 8.2 6.1 8.2 10.2 0 2.2 0.1 2.2 14.4 2.2 19.8 0 26.2 2.4 30.8 11.8 2.1 4.2 2.3 6.4 2.6 21.2 l0.4 16.5 10.2 -0.3 c12.6 -0.5 13.6 0.1 13.6 8.7 0 7.2 -0.8 7.9 -9.9 9.6 -10.2 2 -16.5 5.1 -21.4 10.5 -5.6 6.2 -7.4 11.6 -5.8 17 1.7 5.7 7.7 12.3 13.8 15.1 2.9 1.3 5.3 2.7 5.3 3.2 0 0.4 2 0.7 4.5 0.7 4.5 0 4.5 0 4.5 3.5 l0 3.5 -5 0 c-2.7 0 -5 -0.4 -5 -1 0 -0.5 -1.4 -1 -3 -1 -3.4 0 -11 -3.5 -11 -5 0 -0.6 -0.6 -1 -1.3 -1 -2 0 -6.4 -5 -8.6 -10 -2.7 -6 -2.8 -16.1 -0.1 -23.3 2.2 -5.9 7.4 -11.4 13.5 -14.5 4 -1.9 15.7 -5.2 18.7 -5.2 0.9 0 2.1 -0.7 2.8 -1.5 2 -2.5 -1.3 -2.9 -10.8 -1.5 -6.6 1.1 -8.7 1.1 -9 0.2 -0.2 -0.7 -1 -1.2 -1.8 -1.2 -1.1 0 -1.4 -2.8 -1.4 -15.7 0 -8.7 -0.5 -17.5 -1.1 -19.6 -1.1 -4.1 -6.6 -10.2 -10.7 -11.9 -1.5 -0.6 -10.1 -1.4 -19.2 -1.7 l-16.4 -0.6 -0.7 -3.5 c-1 -4.7 -5.7 -8.7 -11.1 -9.5 -2.4 -0.4 -12.8 -0.5 -23.2 -0.3 l-18.8 0.3 -2.9 3.3 c-1.7 1.9 -2.9 4.4 -2.9 6 0 4.8 -1.1 5 -15.9 4.5 -15 -0.6 -19 0.1 -24.2 4.4 -6 5.1 -6.9 8.5 -6.9 26.3 0 13.6 -0.2 16 -1.5 16 -0.9 0 -1.5 0.9 -1.5 2.1 0 2.1 -0.3 2.1 -5.7 1.4 -9.5 -1.4 -13.8 -1.2 -13.8 0.5 0 0.9 1.5 1.8 4 2.3 14 3 25.5 8.1 25.5 11.3 0 0.8 0.4 1.4 1 1.4 0.5 0 2 1.9 3.2 4.3 3.1 5.7 3.3 21.3 0.4 26.7 -2.3 4.4 -6.6 9 -8.3 9 -0.7 0 -1.3 0.5 -1.3 1.1 0 2 -11.2 6.2 -18.2 6.7 l-6.8 0.5 0 -3.5z"/>
  <path d="M127.6 365.4 c-1.2 -3 -0.6 -7.1 1.3 -8.8 1 -0.9 3.1 -4.5 4.7 -7.9 5.2 -11.5 3.1 -23.4 -6 -33.4 l-3.6 -4 0 -22.7 c0 -21.4 0.1 -22.7 2 -24.6 1.9 -1.9 3.1 -2 19.8 -1.8 l17.7 0.3 0.7 5 c1.1 7.7 2.6 8.5 17.2 8.7 6.6 0.2 17.7 0.1 24.6 0 14.6 -0.4 16.1 -1.2 17 -8.9 l0.5 -4.8 18.2 -0.3 c24.3 -0.3 22.3 -2.7 22.3 26.6 l0 22.5 -3.5 3.8 c-11.1 12.4 -12.2 27.1 -2.9 40.2 3.7 5.1 4.5 10.1 1.8 11.1 -0.9 0.3 -30.7 0.6 -66.4 0.6 -58.2 0 -64.8 -0.2 -65.4 -1.6z m121.2 -6.1 c-8.8 -17.1 -6.8 -38 4.8 -50.7 l3.4 -3.7 0 -16.1 c0 -20.7 0.7 -19.8 -15.2 -19.8 l-11.8 0 0 4.3 c0 3.5 -0.6 4.9 -3.1 7.3 l-3 2.9 -30.5 0 -30.6 0 -2.9 -3.3 c-2.2 -2.4 -2.9 -4.2 -2.9 -7.2 l0 -4 -12 0 c-10.8 0 -12 0.2 -13 1.9 -0.6 1.1 -1 8.8 -1 17.9 l0 15.9 3.4 3.7 c1.8 2 4.6 6.2 6.2 9.4 2.8 5.4 2.9 6.3 2.9 18.7 0 12 -0.2 13.4 -2.6 18.3 l-2.6 5.2 55.4 0 c30.5 0 55.3 -0.3 55.1 -0.7z"/>
  <path d="M170.3 343.7 l-12.3 -12.3 0 -6.7 c0 -5.9 0.3 -7.1 2.5 -9.2 2 -2.1 3.4 -2.5 8.5 -2.5 5.7 0 6.3 0.2 10.7 4.3 2.6 2.3 5.9 5.2 7.2 6.4 l2.6 2.3 16.5 -16.4 c17.7 -17.6 19.4 -18.7 27.6 -17.2 5.9 1.2 7.4 3.5 7.4 11.8 l0 7.3 -22.3 22.2 -22.2 22.3 -7 0 -6.9 0 -12.3 -12.3z m62.2 -41.7 c-1 -1.1 -2.3 -2 -2.8 -2 -0.6 0 -9 7.9 -18.7 17.5 -17.5 17.5 -17.6 17.5 -22.1 17.5 -4.1 0 -4.9 -0.4 -10.4 -6.1 -7.3 -7.3 -9.1 -8.5 -11.1 -6.8 -0.8 0.6 -1.4 1.9 -1.4 2.9 0 0.9 5.2 6.8 11.6 13 l11.6 11.3 22.6 -22.6 c22.4 -22.4 22.6 -22.6 20.7 -24.7z"/>
  <path d="M309 363.8 c0 -3.3 0.3 -3.6 3.8 -4.3 3.7 -0.7 10.6 -4 13 -6.2 2.1 -2 6.2 -11.6 6.2 -14.5 0 -2.5 0.3 -2.8 3.6 -2.8 l3.7 0 -0.5 6.3 c-0.7 8.1 -5.4 17.7 -8.7 17.7 -0.6 0 -1.1 0.4 -1.1 1 0 1.8 -8.4 5.2 -14.2 5.7 l-5.8 0.6 0 -3.5z"/>
  <path d="M22.3 359.3 c-1.3 -0.9 -2.3 -2.2 -2.3 -2.9 0 -0.8 -0.4 -1.4 -0.9 -1.4 -1.1 0 -8.3 -14.7 -10.7 -22 -1.8 -5.2 -1.9 -12 -2.2 -137 -0.2 -94.3 0 -133.6 0.8 -139 1.2 -7.7 8.8 -25.7 11.6 -27.3 0.8 -0.4 1.4 -1.4 1.4 -2.1 0 -0.8 1.1 -2.1 2.5 -3 2.5 -1.6 2.5 -1.6 2.5 1.5 0 2.2 -0.5 3.2 -2 3.6 -1.3 0.3 -2 1.4 -2 2.9 0 1.3 -0.4 2.4 -1 2.4 -0.5 0 -1 0.6 -1 1.4 0 0.8 -0.6 2.1 -1.2 2.8 -1.6 1.7 -3.6 6.6 -5.9 14.8 -1.7 6.1 -1.8 14.2 -1.8 137 -0.1 115 0.1 131.2 1.4 136 0.9 3 1.9 7.6 2.2 10.3 0.4 3 1 4.7 1.9 4.7 0.8 0 1.4 1 1.4 2.5 0 1.5 0.6 2.5 1.4 2.5 0.7 0 2 1.5 2.7 3.3 0.7 1.7 1.9 3.7 2.7 4.2 0.7 0.6 1.2 2.3 1 3.7 -0.3 2.4 -0.4 2.5 -2.5 1.1z"/>
  <path d="M346.4 347.2 c-0.8 -0.4 -1.1 -5 -1.1 -13.2 0.1 -10.9 -0.4 -14.1 -3.2 -25.4 -3.3 -13.2 -9 -28.8 -15.6 -43.1 -15.4 -33.5 -20.1 -54 -21 -93.5 -0.6 -23.6 -1.7 -33.3 -4.6 -41.8 -2.9 -8.3 -2.5 -11.2 1.7 -15.3 4.7 -4.5 8.5 -12.1 8.6 -17.1 0.1 -8.9 -8.8 -20.1 -18.3 -23 -4.7 -1.4 -11.3 0 -15.9 3.2 -4.6 3.3 -8.7 2.5 -15.8 -2.9 -27.5 -20.9 -64.8 -28 -97.9 -18.5 -11.4 3.2 -26.9 10.9 -36.1 17.9 -8.4 6.3 -11.1 6.8 -17.5 3.1 -6.4 -3.8 -11.5 -4.2 -17.3 -1.7 -9.2 4.1 -15.6 12.6 -15.7 21 -0.1 5.8 4 14.8 8.4 18.5 3.6 3.1 3.9 8 0.8 17.6 -1.7 5.4 -2.2 10.6 -3 31 -1.7 48 -4.5 61 -21.9 102 -13.4 31.3 -17.7 46.7 -18.7 67 -0.7 12.4 -1.3 14 -6.1 14 -2.5 0 -3.5 -0.8 -6 -4.7 -6.6 -10.4 -6.3 -1.8 -6 -152.4 l0.3 -136.4 3.2 -6.7 c4.4 -9.4 11 -16.1 20.2 -20.6 l7.6 -3.7 138.5 0 138.5 0 7 3.4 c12.3 6.1 20.9 17.3 23.5 30.6 0.8 4.4 1 42.6 0.8 139 -0.3 126.4 -0.4 133.2 -2.1 138 -1.1 2.8 -3.2 7.1 -4.9 9.8 -2.6 4 -3.5 4.7 -6.2 4.7 -1.7 0 -3.6 -0.4 -4.2 -0.8z m-308.8 -39.5 c2.6 -12.8 8 -28.8 16.5 -48.3 17 -39.3 20.1 -53.6 21.9 -101.9 0.6 -16.9 1.3 -25.5 2.4 -29 l1.5 -5 -2.8 -3 c-6 -6.3 -7.6 -10.9 -7.6 -23 0 -12.4 1.2 -15.9 8 -22.7 5.9 -5.9 9.7 -7.2 21 -7.6 8.1 -0.2 10.8 0.1 14 1.6 l4 1.9 7.7 -5.4 c21.2 -14.8 46 -21.3 76.3 -20 25.3 1.2 44.9 7.4 63.3 20.3 l6.6 4.6 5.2 -1.6 c8 -2.5 20.7 -2.1 26.9 0.8 6.2 2.9 10.7 7.6 13.7 14.1 1.8 4 2.3 6.7 2.3 14 0 10.5 -1.3 14.8 -6.4 21.3 l-3.8 4.8 1.8 8.9 c1.3 6.2 1.9 13.4 1.9 23 0 30.3 3.4 55.4 10.1 75.5 1.7 5.2 6.4 16.9 10.4 26 13.1 29.9 17.5 43.8 19.9 63.3 l1.3 10.2 1.4 -4 c1.1 -3.3 1.4 -25 1.7 -131 0.2 -92.2 0 -128.6 -0.8 -133 -2.5 -12.6 -11 -23.7 -22.8 -29.6 l-6.7 -3.4 -130 -0.3 c-127.8 -0.2 -130.1 -0.2 -136.6 1.8 -11.7 3.5 -20.6 11.5 -26.1 23.5 l-2.3 5 -0.3 130.4 c-0.2 120.6 -0.1 130.9 1.5 136 l1.7 5.6 0.8 -7.9 c0.4 -4.4 1.5 -11.5 2.4 -15.9z"/>
  <path d="M331.6 322.8 c-1.5 -14.5 -9.6 -39 -19.5 -58.6 -9.8 -19.6 -18.1 -53.8 -18.1 -74.9 l0 -6.3 3.5 0 3.5 0 0 5.3 c0 7 2.5 24.1 5.1 34.2 3.4 13.6 6.9 23.5 13.6 37.7 7.3 15.9 12.6 29.3 14.9 38.1 2.3 8.9 4.4 21.5 4.4 26.5 0 4.1 -0.1 4.2 -3.4 4.2 l-3.3 0 -0.7 -6.2z"/>
  <path d="M156.5 202.7 c-10.4 -3.5 -14.5 -7.5 -14.5 -14.4 0 -7 1.2 -8.3 7.4 -8.3 4.7 0 6 0.5 9.6 3.5 7.5 6.3 15.4 6 22.5 -0.9 2.5 -2.3 4.5 -4.7 4.5 -5.2 0 -0.6 -1.7 -1.8 -3.7 -2.8 -13.2 -6.2 -17.3 -11 -17.3 -20.5 0 -5.2 0.4 -6.6 2.5 -8.6 1.3 -1.4 3.3 -2.5 4.5 -2.5 1.1 0 2 -0.4 2 -1 0 -1.3 6.6 -3 11.8 -3 4.1 0 4.2 0 4.2 3.5 0 2.9 -0.4 3.5 -2.1 3.5 -6.6 0 -14.9 4.8 -14.9 8.7 0 2.9 5.8 7.9 14.1 12.3 l7.4 3.9 6.6 -3.5 c10.2 -5.4 14.9 -9.8 14.9 -14 0 -2.7 -0.4 -3.4 -1.9 -3.4 -1.1 0 -2.6 -0.7 -3.4 -1.4 -0.8 -0.8 -3.8 -1.8 -6.6 -2.2 -5 -0.6 -5.1 -0.7 -5.1 -4.2 l0 -3.5 6.1 0.6 c3.4 0.3 6.5 1 6.8 1.5 0.3 0.6 2 1.2 3.6 1.4 2.2 0.2 3.1 0.9 3.3 2.5 0.2 1.4 1.1 2.3 2.5 2.5 2 0.3 2.2 1 2.5 7 0.3 6.7 0.2 6.8 -3.8 11.2 -2.2 2.4 -7.2 6 -11 8.1 l-7 3.6 1.6 2.8 c0.9 1.5 3.1 3.7 4.9 4.9 6.5 4.5 13.9 3.9 21.1 -1.9 3 -2.4 4.6 -2.9 9 -2.9 6.3 0 7.4 1.3 7.4 8.5 0 5.6 -2.4 8.4 -10.8 12.3 -4.9 2.3 -7.3 2.7 -17.3 3 -10.6 0.4 -12.1 0.2 -18 -2.2 l-6.5 -2.6 -4.4 2.3 c-3.8 1.8 -6.4 2.2 -16.5 2.4 -7.8 0.2 -13.4 -0.2 -16 -1z m21 -6.7 c1.2 -0.4 -0.7 -0.6 -4.5 -0.3 -3.6 0.3 -6.7 0.7 -6.9 0.9 -0.9 0.8 9.5 0.2 11.4 -0.6z m38 0 c-10.3 -1.4 -17.1 -5.2 -19.5 -10.9 -1.6 -3.9 -2.4 -3.9 -4 0 -0.8 1.7 -3.1 4.4 -5.3 6 -2.2 1.6 -3.6 2.9 -3.1 2.9 0.5 0 2 -0.9 3.4 -2 3.2 -2.5 10.6 -2.7 13.2 -0.3 2.7 2.5 11.8 5.2 16.8 5.1 4.3 0 4.2 -0.1 -1.5 -0.8z"/>
  <path d="M293 166 l0 -12 3.5 0 3.5 0 0 12 0 12 -3.5 0 -3.5 0 0 -12z"/>
  <path d="M132.5 147.7 c-2 -1.7 -2.8 -3.5 -3.2 -7 l-0.6 -4.7 3.4 0 c2.7 0.1 3.8 0.7 5.4 3.3 1.5 2.3 2.9 3.3 5.3 3.5 2.7 0.3 3.2 0 3.2 -1.7 0 -1.2 0.5 -2.1 1 -2.1 0.6 0 1 -0.9 1 -2 0 -1.6 0.7 -2 3.5 -2 3.3 0 3.5 0.2 3.5 3.5 0 1.9 -0.4 3.5 -1 3.5 -0.5 0 -1 0.9 -1 2 0 1.3 -0.7 2 -2 2 -1.3 0 -2 0.7 -2 2 0 1.8 -0.7 2 -6.9 2 -5.8 0 -7.4 -0.4 -9.6 -2.3z"/>
  <path d="M236.7 148 c-4.8 -3.8 -6.2 -15.2 -2.8 -22.7 2.4 -5.2 4.5 -6.3 11.8 -6.3 9.6 0 13.3 4.4 13.3 15.9 0 7.5 -1.3 11.1 -4 11.1 -1.3 0 -2 0.7 -2 2 0 1.8 -0.7 2 -6.9 2 -5.4 0 -7.4 -0.4 -9.4 -2z m14.2 -9.4 c0.7 -2.5 1 -5.3 0.7 -6.4 -1 -2.9 -5.3 -6.5 -7 -5.9 -2.7 1 -5.7 6.9 -5 9.7 0.8 3.7 4.4 7 7.4 7 2.2 0 2.8 -0.7 3.9 -4.4z"/>
  <path d="M293 146.9 c0 -3.5 -5 -23.8 -6.3 -25.4 -1.1 -1.5 -10.7 -17.8 -10.7 -18.3 0 -0.2 -1.1 -1.3 -2.5 -2.4 -1.4 -1.1 -2.5 -2.8 -2.5 -3.9 0 -1 -0.5 -1.9 -1 -1.9 -1.4 0 -6 -4.6 -6 -6 0 -0.5 -0.9 -1 -1.9 -1 -1.1 0 -2.8 -1 -3.8 -2.2 -1 -1.3 -3 -2.9 -4.5 -3.7 -1.6 -0.8 -2.8 -1.8 -2.8 -2.3 0 -0.4 -0.6 -0.8 -1.4 -0.8 -0.8 0 -1.6 -0.3 -1.8 -0.7 -0.4 -1.1 -15 -8.1 -20.2 -9.8 -20.8 -6.8 -45.5 -7 -65.6 -0.5 -6.9 2.3 -23.3 10 -23.8 11.3 -0.2 0.4 -0.8 0.7 -1.3 0.7 -0.6 0 -2.4 1.3 -4.2 3 -1.8 1.6 -3.5 3 -4 3 -0.4 0 -2.3 1.8 -4.3 4 -2 2.2 -4.3 4 -5 4 -0.8 0 -1.4 0.7 -1.4 1.6 0 0.8 -1.2 2.8 -2.7 4.4 -1.6 1.5 -3.5 3.8 -4.3 5.1 -9.7 15.8 -14.4 27.3 -15.6 38.2 l-0.7 5.7 -3.5 0 -3.5 0 0.7 -7.9 c0.3 -4.4 1.7 -11.3 3 -15.5 2.7 -8.3 9.9 -22.5 13.4 -26.3 1.2 -1.3 2.2 -2.7 2.2 -3.1 0.1 -1.2 4.9 -6.2 6 -6.2 0.5 0 1 -0.6 1 -1.3 0 -1.3 6 -7.7 7.2 -7.7 0.4 0 2 -1.3 3.6 -3 1.7 -1.6 3.8 -3 4.6 -3 0.9 0 1.6 -0.4 1.6 -1 0 -0.5 0.7 -1 1.5 -1 0.8 0 1.5 -0.4 1.5 -1 0 -1.4 15.4 -8.5 23.5 -10.9 12.5 -3.6 19.7 -4.5 36 -4.5 17 0 26.1 1.2 37.9 4.9 7.8 2.5 19.9 8.2 20.4 9.6 0.2 0.5 1 0.9 1.8 0.9 0.8 0 1.4 0.5 1.4 1 0 0.6 0.7 1 1.5 1 0.8 0 2.3 0.8 3.3 1.8 1 0.9 2.7 2.2 3.8 2.8 1 0.6 2.3 2 2.9 3.2 0.5 1.2 1.6 2.2 2.3 2.2 1.7 0 6.2 4.5 6.2 6.2 0 0.7 1 1.8 2.2 2.3 1.2 0.6 2.6 1.9 3.2 3 0.6 1.1 1.7 2.4 2.3 3 2.2 1.8 10.3 16.9 10.3 19.1 0 1.2 0.4 2.4 0.8 2.6 1.6 0.6 5.5 15.3 6 22.6 l0.5 7.2 -3.7 0 c-3.4 0 -3.6 -0.2 -3.6 -3.1z"/>
  <path d="M129 131 c0 -4.2 2.6 -10 4.4 -10 0.9 0 1.6 -0.4 1.6 -1 0 -0.6 2.8 -1 6.4 -1 5.7 0 6.8 0.3 9.6 2.9 2.5 2.2 3.3 4 3.7 7.5 l0.6 4.6 -3.6 0 c-2.7 0 -3.7 -0.5 -4.2 -2 -0.9 -2.8 -4.5 -6 -6.6 -6 -1 0 -2.5 1.6 -3.6 4 -1.5 3.4 -2.2 4 -5 4 -3 0 -3.3 -0.3 -3.3 -3z"/>
  <path d="M293.5 108.3 c-1.2 -0.2 -3 -2 -4 -4 -1.1 -2.1 -3.5 -5.3 -5.3 -7.3 -3.2 -3.3 -3.3 -3.8 -2.7 -8.9 0.3 -3 0.8 -5.7 1 -5.9 1.1 -1.1 9.7 -1.3 12.9 -0.2 2.8 0.9 3.6 1.7 3.6 3.6 0 1.9 0.5 2.4 2.4 2.4 1.3 0 2.7 0.7 3 1.6 1.2 3.1 0.6 13.5 -0.9 16.4 -1.6 3 -3.9 3.6 -10 2.3z m4.1 -12.4 c-0.3 -1.7 -0.6 -3.8 -0.6 -4.5 0 -0.8 -0.9 -1.4 -2.1 -1.4 -1.1 0 -3 -0.5 -4.1 -1.1 -2.1 -1.1 -2.1 -1.1 0 1.9 1.2 1.6 2.2 3.3 2.2 3.6 0 0.9 3.4 4.4 4.4 4.5 0.5 0.1 0.6 -1.3 0.2 -3z"/>
  <path d="M91 103.1 c0 -3.9 0.9 -6.1 2.6 -6.1 0.8 0 1.4 -0.8 1.4 -1.9 0 -1 1 -3.1 2.2 -4.6 l2.1 -2.7 -2.4 0.7 c-1.3 0.4 -2.4 0.8 -2.5 0.9 0 0 -1 1.4 -2.2 3 -1.5 1.9 -2.2 4.3 -2.2 7.2 0 4.4 0 4.4 -3.5 4.4 l-3.5 0 0 -6.7 c0 -7.3 2.5 -13.3 5.5 -13.3 0.8 0 1.5 -0.4 1.5 -0.9 0 -1.5 5.7 -2.3 11 -1.6 3.3 0.5 5 1.2 5 2.1 0 0.8 0.5 1.4 1 1.4 0.6 0 1 1.4 1 3 0 3.2 -5.5 11.9 -7.6 12 -0.6 0 -1.4 1.4 -1.7 3 -0.6 2.7 -1.1 3 -4.2 3 -3.2 0 -3.5 -0.2 -3.5 -2.9z"/>
  <path d="M359 24 c0 -0.5 -0.7 -1 -1.5 -1 -0.8 0 -1.5 -0.9 -1.5 -2 0 -1.5 -0.7 -2 -2.5 -2 -1.4 0 -2.5 -0.4 -2.5 -1 0 -0.5 -0.6 -1 -1.4 -1 -0.8 0 -1.6 -0.3 -1.8 -0.8 -0.6 -1.3 -14.2 -7 -19.6 -8.1 -3.7 -0.8 -45.3 -1.1 -135 -1.1 -112.8 0 -130.5 0.2 -135.2 1.5 -3 0.8 -7 1.8 -8.8 2.1 -1.7 0.4 -3.2 1.1 -3.2 1.5 0 0.5 -1.3 0.9 -3 0.9 -1.6 0 -3 0.5 -3 1.1 0 2 -2.9 3.9 -5.9 3.9 -2.9 0 -3 -0.2 -1.9 -2 0.7 -1.1 1.8 -2 2.5 -2 0.6 0 1.3 -0.3 1.5 -0.7 0.4 -1.1 10.2 -5.7 16.8 -7.9 5.3 -1.8 11 -1.9 139.5 -1.9 73.7 0 135.6 0.3 137.5 0.7 7.7 1.6 17.8 5.8 21.4 9.1 1.1 0.9 2.6 1.7 3.3 1.7 0.7 0 1.3 0.4 1.3 1 0 0.5 1.5 2 3.4 3.2 1.9 1.2 3.9 3 4.5 4 1 1.6 0.7 1.8 -1.9 1.8 -1.6 0 -3 -0.4 -3 -1z"/>
 </g>
 <g fill="#6550b5">
  <path d="M65.2 383.9 c-8.3 -1.4 -20.3 -6.5 -27.8 -11.8 -16.2 -11.4 -25.2 -25.1 -29.8 -45.5 -0.4 -1.5 -0.7 -62.4 -0.7 -135.1 0 -115.4 0.2 -133.2 1.6 -139 5.2 -22.8 23.1 -41 46 -47 8.7 -2.2 268.6 -2.3 278.3 0 12.6 3 26.9 12.3 34.7 22.8 5.9 7.7 7.7 11.3 10.6 20.7 l2.4 7.5 0 135.5 0 135.5 -2.7 8 c-7.5 22 -24.3 38.5 -47.3 46.3 l-8 2.7 -126 0.1 c-69.6 0.1 -128.4 -0.2 -131.3 -0.7z m160.1 -20.6 c-17.1 -0.2 -45.5 -0.2 -63 0 -17.5 0.1 -3.4 0.2 31.2 0.2 34.7 0 49 -0.1 31.8 -0.2z m29.3 -5 c-3.7 -5.3 -6.6 -12.8 -6.6 -17.3 0 -1.7 -0.4 -3 -0.9 -3 -1.3 0 0.8 9.9 3.1 14.8 1.9 4 6.4 10.2 7.4 10.2 0.2 0 -1.1 -2.1 -3 -4.7z m-119.3 -1.9 c4.5 -7.1 6.1 -13.7 5.5 -22.8 -0.5 -8.1 -4 -16.2 -9.4 -22.2 l-3.4 -3.7 0 -18.9 c0 -11.2 0.4 -19.8 1.1 -21.1 1 -2.1 1 -2.1 -0.5 -0.3 -1.3 1.6 -1.6 5.3 -1.6 21.4 l0 19.5 3.6 4 c2 2.2 4.8 6.5 6.3 9.6 2.2 4.7 2.6 7 2.6 14.6 0 7.8 -0.4 9.8 -2.8 15 -1.6 3.3 -3.8 7 -4.9 8.2 -1.2 1.3 -1.7 2.3 -1.1 2.3 0.7 0 2.7 -2.5 4.6 -5.6z m114.5 3.2 c-1 -0.7 -1.8 -2.3 -1.8 -3.4 0 -1.2 -0.6 -2.5 -1.4 -2.9 -2.8 -1.6 -5.1 -22.6 -2.6 -23.5 0.6 -0.2 1.3 -2.7 1.7 -5.6 0.3 -2.8 0.9 -5.2 1.3 -5.2 0.4 0 1 -1.3 1.4 -3 0.3 -1.8 1.2 -3 2.1 -3 0.9 0 1.5 -0.9 1.5 -2.1 0 -1.2 0.8 -2.3 2 -2.6 1.1 -0.3 2 -1.2 2 -1.9 0 -0.8 0.5 -1.4 1 -1.4 0.6 0 1 -6 1 -16 0 -10 -0.4 -16 -1 -16 -0.5 0 -1 -0.9 -1 -2 0 -2.7 -2.5 -3.1 -15.5 -2.8 l-11 0.3 -0.3 5.5 c-0.3 6 -1.4 8 -4.3 8 -1.1 0 -1.9 0.3 -1.9 0.8 0 0.4 -13.1 0.7 -29.2 0.7 l-29.2 0 -2.9 -2.6 c-2 -1.9 -3 -3.9 -3.5 -7.5 l-0.7 -4.9 -11.2 -0.3 c-10.6 -0.2 -11.3 -0.1 -13.7 2.1 -2.6 2.4 -2.6 2.5 -2.6 18.6 0 10.1 0.4 16.1 1 16.1 0.6 0 1 0.7 1 1.6 0 0.9 0.9 1.8 2 2.1 1.1 0.3 2 1.4 2 2.4 0 1.1 0.7 1.9 1.5 1.9 0.9 0 1.8 1.2 2.2 3 0.3 1.7 0.9 3 1.4 3 0.5 0 0.9 1.4 0.9 3 0 1.7 0.5 3 1.1 3 0.7 0 1 1.5 0.7 4 -0.2 2.2 0.1 4 0.6 4 1 0 -0.2 14.3 -1.4 15 -1.1 0.7 -4 7.9 -4 10 0 1 -0.6 2.1 -1.2 2.3 -0.7 0.3 24.6 0.6 56.2 0.6 48 0 57.2 -0.2 55.8 -1.3z m-143.1 -3 c3.4 -1.6 7 -3.7 7.9 -4.7 0.9 -1.1 2.2 -1.9 2.8 -1.9 1.5 0 5.7 -9.4 5.8 -12.9 0.1 -3.3 -3.2 -10.4 -6.5 -14.1 -2.8 -3.2 -10.1 -6.3 -19.9 -8.5 -4.3 -0.9 -7.8 -2.1 -7.8 -2.6 0 -0.5 -0.6 -0.9 -1.4 -0.9 -3.2 0 -3.7 -10.4 -0.7 -14.1 1.8 -2.3 2.5 -2.4 12 -2.2 l10.1 0.1 0 -13.3 c0 -7.4 0.5 -15.7 1.1 -18.4 1.5 -7 5.7 -12.5 11.9 -15.3 2.7 -1.2 5 -2.8 5 -3.4 0 -0.6 1.1 -2.1 2.5 -3.4 4.3 -4.1 8.3 -13.9 9.1 -22.4 0.7 -7.5 0.6 -7.8 -2.4 -11.9 -3.6 -5.1 -7.2 -15.1 -7.2 -20.2 0 -3.3 0.2 -3.5 3.4 -3.5 3.1 0 3.4 0.3 4.1 3.7 0.7 4 3.7 10.5 6.6 14.1 4.6 5.9 3.2 28.1 -2.5 39.5 l-3.4 6.7 9.9 0 9.9 0 0 -3.4 c0 -4.4 0.9 -6.6 2.6 -6.6 0.8 0 1.4 -0.7 1.4 -1.5 0 -0.9 0.9 -1.5 2.5 -1.5 1.4 0 2.5 -0.3 2.5 -0.7 0 -1 53.8 -0.8 56.8 0.1 1.2 0.4 2.2 1.4 2.2 2.2 0 0.8 0.8 1.8 1.8 2.1 2.4 0.9 3.2 2.3 3.2 6.1 l0 3.2 10 0 c5.5 0 10 -0.2 10 -0.4 0 -0.2 -1.1 -2.3 -2.4 -4.7 -3.4 -6 -5.6 -15 -5.6 -22.6 l0 -6.3 3.4 0 3.3 0 0.6 6.9 c0.9 11.1 8.7 24.8 15.8 27.8 3.8 1.6 9.7 7.6 11.4 11.6 1.9 4.5 3.1 16.7 1.6 16.7 -0.7 0 -1.1 3.3 -1.1 10.1 0 9.2 0.2 10.1 1.8 9.4 0.9 -0.4 5.5 -0.9 10.2 -1.2 7.9 -0.5 8.7 -0.3 11.3 1.9 2.3 2 2.7 3.1 2.7 7.6 0 6.2 -2 8.8 -7.7 9.7 -6.2 1.1 -13.2 3.3 -18.8 6 -4.5 2.1 -5.7 3.3 -8.4 8.4 -1.7 3.3 -3.1 6.7 -3.1 7.6 0 0.8 -0.6 1.5 -1.2 1.6 -1 0 -1 0.2 0 0.6 0.6 0.2 1.2 1.1 1.2 1.9 0 2.1 5 11.4 6.2 11.4 0.5 0 2.5 1.2 4.3 2.6 7.9 6 27.4 8.4 39.4 4.9 7.5 -2.3 13.4 -8.3 15.6 -16 4.2 -14.5 -1.7 -40.7 -16.4 -72.4 -16.2 -34.8 -19.9 -52.1 -21.1 -98.1 -0.7 -27 -1 -31.4 -2.9 -38 -2.8 -9.3 -9 -22.1 -14.2 -28.9 -2.1 -2.8 -3.9 -5.3 -3.9 -5.5 0 -0.4 -11.6 -11.9 -13.3 -13.1 -13.7 -9.9 -23.4 -14.9 -37.4 -19.2 -8.1 -2.5 -10.2 -2.7 -26.3 -2.7 -15 -0.1 -18.8 0.2 -26.4 2.2 -9.7 2.4 -24.6 9.1 -32.1 14.2 -4.7 3.2 -20.6 17.6 -21.5 19.5 -0.3 0.5 -2.9 4.6 -5.8 9 -5.8 8.8 -10.7 20.5 -12.8 30.5 -0.9 4.3 -1.4 13.5 -1.4 27.3 0 42.1 -5.6 69.2 -21 101.7 -20.3 42.9 -23.7 77.9 -8.3 86.3 7.9 4.3 10.3 4.7 22.8 4.4 10.6 -0.3 12.7 -0.6 18.2 -3.1z m-44.7 2.1 c0 -0.2 -1.5 -1.6 -3.2 -3.3 l-3.3 -2.9 2.9 3.3 c2.8 3 3.6 3.7 3.6 2.9z m59.6 -5.9 l2.9 -3.3 -3.2 2.9 c-3.1 2.8 -3.8 3.6 -3 3.6 0.2 0 1.6 -1.5 3.3 -3.2z m148.4 2.9 c0 -0.2 -1.5 -1.6 -3.2 -3.3 l-3.3 -2.9 2.9 3.3 c2.8 3 3.6 3.7 3.6 2.9z m86.1 -19.5 c5 -10.2 4.9 -5.7 4.9 -143.4 0 -91.6 -0.3 -130.2 -1.1 -134 -2.8 -12.9 -11.4 -24 -23.4 -29.9 l-7 -3.4 -135.5 0 -135.5 0 -7.6 3.7 c-9.2 4.5 -15.8 11.2 -20.2 20.6 l-3.2 6.7 -0.3 133.4 c-0.3 147.3 -0.6 139 6 149.4 1.6 2.6 3.1 4.7 3.3 4.7 0.2 0 -1.6 -3.6 -3.9 -8.1 l-4.1 -8.1 0 -135.7 0 -135.6 2.3 -5 c5.5 -12 14.4 -20 26.1 -23.5 6.5 -2 8.8 -2 139.6 -1.8 l133 0.3 6.7 3.4 c11.5 5.7 20.1 16.7 22.7 28.9 0.8 3.8 1.1 42.3 1.1 133.5 0 141.1 0.3 134 -6.4 146.3 -2 3.8 -2.8 5.8 -1.6 4.4 1.1 -1.4 2.9 -4.4 4.1 -6.8z m-6.2 -2.7 c0.2 -19.6 -5.2 -39 -20.4 -73.5 -4 -9.1 -8.7 -20.8 -10.4 -26 -6.7 -20.1 -10.1 -45.4 -10.1 -75.1 0 -13.8 -1.8 -27.1 -4.5 -33.7 -1.4 -3.2 -1.4 -3.3 2.6 -7.3 13.9 -13.9 10 -37.2 -7.6 -45.5 -8 -3.8 -21.2 -2.7 -26.6 2.2 -1.5 1.3 -2.4 0.9 -10 -4.5 -24 -17.2 -52.6 -24.5 -83.2 -21.2 -20 2.2 -40.5 10.1 -55.4 21.4 l-7.1 5.5 -5.9 -3 c-5.1 -2.6 -6.6 -2.9 -12.8 -2.6 -8.1 0.4 -12.8 2.4 -18 7.6 -6.2 6.2 -8 10.6 -7.9 19.7 0 6.3 0.5 8.9 2.3 12.5 2.4 4.6 7.8 11 9.4 11 0.5 0 -0.5 -1.1 -2.2 -2.5 -1.6 -1.4 -4.3 -5.2 -5.8 -8.3 -2.3 -4.7 -2.8 -7 -2.8 -13.2 0 -6.4 0.5 -8.3 2.7 -12.1 3.5 -5.9 8.4 -10.2 14.2 -12.4 6.4 -2.5 16 -1.6 22 1.9 l4.5 2.6 7.3 -5.5 c9.3 -7.1 24.7 -14.7 36.3 -18 12.6 -3.6 31.2 -5.1 45.1 -3.7 23 2.4 41 9.2 58.9 22.5 l6.5 4.8 2.8 -1.9 c4.1 -2.9 8.9 -4.2 15.2 -4.2 11.3 0 21.2 7.9 24.6 19.7 2.7 9.5 0.1 18.8 -7.7 26.9 l-3.9 4 1.9 5.6 c2.9 8.5 4 18.2 4.6 41.8 0.9 39.5 5.6 60 21 93.5 6.6 14.3 12.3 30 15.6 43.1 2.8 11 3.3 14.8 3.3 25.6 0.1 7 0.4 11.9 0.8 11 0.4 -0.9 0.7 -4.8 0.7 -8.7z m-308.5 -22 c2.9 -13.7 7.5 -27.2 16.5 -48.5 17.5 -41 20.3 -54 22 -102 0.8 -20.7 1.3 -25.6 3.1 -31.3 1.2 -3.8 2 -7.1 1.7 -7.3 -0.2 -0.2 -1.4 2.8 -2.6 6.8 -2 6.2 -2.4 10.8 -3.1 31.3 -1.8 48.6 -4.7 61.8 -22.4 103.1 -13.2 30.8 -18.8 52.1 -18.4 70.3 l0.1 8.6 0.7 -11.5 c0.4 -6.3 1.5 -15.1 2.4 -19.5z m219.3 23.8 c-0.2 -1.6 -0.4 -0.5 -0.4 2.2 0 2.8 0.2 4 0.4 2.8 0.2 -1.3 0.2 -3.5 0 -5z m-209 -6 c-0.2 -1.6 -0.4 -0.3 -0.4 2.7 0 3 0.2 4.3 0.4 2.8 0.2 -1.6 0.2 -4 0 -5.5z m196.6 2.3 c0.6 -6.2 4.3 -14.1 9.2 -19.5 l3.5 -3.8 0 -19.5 c0 -25.5 1.3 -23.9 -19.3 -23.6 l-15.2 0.3 -0.5 4.8 c-0.4 3 -1.4 5.5 -2.8 7 -2.2 2.2 -2.8 2.2 -27.4 2.3 -13.8 0.1 -26.5 -0.2 -28.3 -0.7 -4.3 -1.2 -5.5 -2.8 -6.3 -8.6 l-0.7 -4.8 -14.8 0 -14.7 -0.1 14.5 0.3 14.5 0.4 0 3.9 c0 3 0.7 4.8 2.9 7.2 l2.9 3.3 27.6 0 27.5 0 3 -2.9 c2.5 -2.4 3.1 -3.8 3.1 -7.3 l0 -4.3 14.7 0 c12.2 0 14.9 0.3 16.5 1.7 1.6 1.4 1.8 3.5 1.8 20.9 l0 19.3 -2.6 2.8 c-3.7 3.9 -6.8 9.1 -8.7 14.3 -1.9 5.4 -2.9 12 -1.8 12 0.5 0 1.1 -2.4 1.4 -5.4z m-212.7 -3.9 c-0.5 -5.5 -0.1 -10 1.3 -17.6 2.5 -12.6 6.8 -26.9 8.7 -28.8 0.8 -0.8 1.4 -2.7 1.4 -4.3 0 -1.6 0.7 -3 1.5 -3.4 0.9 -0.3 1.5 -1.8 1.5 -3.5 0 -1.6 0.6 -3.1 1.5 -3.5 0.9 -0.3 1.5 -1.8 1.5 -3.5 0 -1.6 0.6 -3.1 1.5 -3.5 0.9 -0.3 1.5 -1.8 1.5 -3.6 0 -1.8 0.8 -3.7 2 -4.7 1.1 -1 2 -2.8 2 -4.1 0 -1.3 0.7 -3 1.5 -3.8 0.8 -0.9 1.5 -2.5 1.5 -3.7 0 -2.9 4.2 -15.7 5.2 -15.7 0.4 0 0.8 -1.1 0.8 -2.4 0 -1.3 0.9 -6.6 1.9 -11.8 1.1 -5.2 2.3 -12.9 2.7 -17.1 0.4 -4.3 1 -7.7 1.5 -7.7 0.4 0 0.5 -8.5 0.2 -19 -0.4 -11.1 -0.2 -19 0.3 -19 0.5 0 1 -3.3 1.1 -7.3 0 -3.9 0.8 -9.4 1.7 -12.1 1.4 -4.7 1.4 -5 -0.7 -7.7 -1.2 -1.5 -2.7 -2.8 -3.3 -2.8 -1.4 -0.1 -3.4 -4.5 -3.4 -7.6 0 -1.4 -0.4 -2.5 -0.9 -2.5 -1 0 -1.2 -18.2 -0.2 -19 0.9 -0.7 5.1 -9.3 5.1 -10.4 0 -1.3 4.4 -5.6 5.8 -5.6 0.6 0 1.2 -0.4 1.2 -1 0 -0.5 0.9 -1 2 -1 1.1 0 2 -0.4 2 -0.9 0 -1.8 5.2 -2.1 16.7 -1 8.7 0.8 12 1.5 12.9 2.7 1 1.4 1.3 1.4 2.5 -0.6 0.8 -1.2 2 -2.2 2.7 -2.2 0.7 0 1.5 -0.7 1.8 -1.5 0.4 -0.8 1.2 -1.5 2 -1.5 0.8 0 1.4 -0.4 1.4 -1 0 -0.5 0.7 -1 1.5 -1 0.8 0 1.5 -0.4 1.5 -1 0 -0.5 0.9 -1 2 -1 1.1 0 2.9 -0.9 4 -2 1.1 -1.1 2.7 -2 3.5 -2 2 0 6.5 -2.2 6.5 -3.2 0 -0.4 1.1 -0.8 2.5 -0.8 1.4 0 2.5 -0.4 2.5 -0.9 0 -1.4 15.9 -5.3 22.2 -5.5 3.2 0 5.8 -0.3 5.8 -0.6 0 -0.8 31 -0.8 31 0 0 0.3 2.4 0.5 5.3 0.6 6 0.1 19.7 3.2 19.7 4.5 0 0.5 1.4 0.9 3 0.9 1.7 0 3 0.5 3 1 0 0.6 1.1 1 2.3 1 1.3 0 3.4 0.9 4.7 2 1.3 1.1 3.1 2 4.2 2 1 0 2.6 0.9 3.5 2 1 1.1 2.5 2 3.5 2 1 0 1.8 0.5 1.8 1 0 0.6 0.7 1 1.5 1 0.8 0 1.5 0.5 1.5 1 0 0.6 0.6 1 1.4 1 0.8 0 1.6 0.7 2 1.5 0.3 0.8 1.2 1.5 2.1 1.5 0.8 0 1.5 0.7 1.5 1.5 0 2.1 1.2 1.9 4 -0.7 2.1 -2 3.5 -2.2 13.7 -2.4 6.2 -0.1 11.3 0.2 11.3 0.7 0 0.5 0.9 0.9 2 0.9 1.1 0 4.3 2.2 7.1 5 2.8 2.7 5.5 5 5.9 5 0.5 0 1.7 2.1 2.7 4.7 1.3 3.5 1.8 7.5 1.8 14.8 0 9.1 -0.2 10.2 -2.3 12.3 -1.2 1.2 -2.5 3.6 -2.9 5.2 -0.3 1.7 -1.1 3 -1.8 3 -3 0 -5.3 6.1 -3.1 8.2 2.4 2.4 3.5 11.8 2.9 23.7 -0.5 8.7 -0.3 11.1 0.7 11.1 1 0 1.2 2.7 0.7 13 -0.4 8.6 -0.2 13 0.5 13 0.6 0 0.9 1.9 0.6 4.5 -0.2 2.5 0 4.5 0.3 4.5 0.3 0 0.9 2.4 1.3 5.3 0.3 3 1.7 9.8 3.1 15.3 1.4 5.4 2.5 10.9 2.5 12.1 0 1.3 0.5 2.3 1 2.3 0.6 0 1 1.1 1 2.5 0 1.4 0.4 2.5 1 2.5 0.5 0 1.3 1.8 1.6 4 0.4 2.2 1 4 1.5 4 0.5 0 0.9 1.3 0.9 3 0 1.6 0.7 3.3 1.6 3.8 0.8 0.5 2 2.8 2.5 5.3 0.6 2.4 1.9 5.2 3 6.2 1 1 1.9 2.7 1.9 3.8 0 1.1 0.7 2.7 1.5 3.5 0.8 0.9 1.8 3.3 2.1 5.5 0.4 2.1 1 3.9 1.5 3.9 0.5 0 0.9 1.1 0.9 2.5 0 1.4 0.5 2.5 1 2.5 0.6 0 1 1.8 1 3.9 0 2.2 0.6 4.6 1.4 5.3 0.7 0.8 1.5 3.8 1.8 6.7 0.3 2.9 1 5.6 1.5 6 1.8 1.1 3.4 14 2.8 21.5 -0.8 9 0.7 6.9 2.6 -3.6 0.7 -4.3 1.7 -7.8 2.1 -7.8 0.4 0 0.8 -56 0.8 -124.5 0 -82.3 -0.3 -124.5 -1 -124.5 -0.5 0 -1 -1.2 -1 -2.7 -0.1 -4 -2.4 -13.3 -4.3 -16.8 -2.5 -4.8 -8.7 -11.5 -10.7 -11.5 -1 0 -2 -0.7 -2.4 -1.5 -0.3 -0.8 -1.4 -1.5 -2.5 -1.5 -1.1 0 -2.6 -0.6 -3.3 -1.4 -0.8 -0.7 -3.3 -1.7 -5.6 -2.1 -2.3 -0.4 -4.2 -1.1 -4.2 -1.6 0 -0.5 -51.8 -0.9 -128.5 -0.9 -85 0 -128.5 0.3 -128.5 1 0 0.6 -1.7 1 -3.8 1 -2.5 0 -4.8 0.7 -6.2 2 -1.3 1.1 -4.1 2.5 -6.2 3.1 -2.2 0.5 -4.2 1.8 -4.5 2.7 -0.9 2.5 -4.4 6.2 -6 6.2 -0.7 0 -1.3 0.7 -1.3 1.5 0 0.8 -0.8 2.3 -1.8 3.3 -1 1 -2.4 4.8 -3.2 8.5 -0.7 3.7 -1.7 6.7 -2.2 6.7 -0.4 0 -0.8 57.6 -0.8 128 0 70.4 0.4 128 0.8 128 0.4 0 1.4 2.8 2.1 6.3 1.6 7.8 1.9 8.7 2.7 8.7 0.4 0 0.4 -3.3 0 -7.3z m232.4 -7.2 c4.2 -4.8 4.2 -4.8 0.6 -1.5 -2.1 1.9 -4.2 4.4 -4.8 5.5 -0.6 1.1 -0.9 1.8 -0.6 1.5 0.2 -0.3 2.4 -2.7 4.8 -5.5z m-174.7 -22.4 c-0.4 -0.6 -4.3 3 -4.3 4 0 0.5 1 -0.2 2.3 -1.4 1.3 -1.2 2.2 -2.4 2 -2.6z m181.4 -21.8 c-0.1 -4.3 -0.3 -0.8 -0.3 7.7 0 8.5 0.2 12 0.3 7.8 0.2 -4.3 0.2 -11.3 0 -15.5z m14.1 22 c-1 -0.2 -2.6 -0.2 -3.5 0 -1 0.3 -0.2 0.5 1.7 0.5 1.9 0 2.7 -0.2 1.8 -0.5z m-175.1 -18 c-0.3 -1 -0.5 -0.2 -0.5 1.7 0 1.9 0.2 2.7 0.5 1.8 0.2 -1 0.2 -2.6 0 -3.5z m-41.8 -17.8 c0 -0.5 -0.8 0.6 -1.9 2.5 -1.1 1.9 -1.9 4 -1.9 4.5 0 0.6 0.8 -0.6 1.9 -2.5 1.1 -1.9 1.9 -3.9 1.9 -4.5z m198.1 -5.9 c0 -0.3 -1.5 -1.4 -3.2 -2.6 l-3.3 -2.2 3 2.6 c3.1 2.7 3.5 2.9 3.5 2.2z m-109 -10.7 c0 -1.8 1.1 -4.1 2.9 -6.1 l2.9 -3.3 21.9 -0.3 c12 -0.2 23.8 -0.1 26.2 0.3 5.5 0.8 11.1 5.9 11.1 9.9 0 1.5 0.6 2.8 1.3 3.1 2.1 0.7 32.7 1 30.9 0.3 -0.9 -0.4 -8.3 -0.7 -16.4 -0.7 -14.7 -0.1 -14.8 -0.1 -14.8 -2.3 0 -4.1 -3.6 -8.5 -8.2 -10.3 -3.8 -1.4 -7.8 -1.6 -27.9 -1.3 -20.4 0.3 -23.7 0.5 -26 2.1 -3 2 -4.9 5.7 -4.9 9.2 l0 2.5 -15.2 0.2 -15.3 0.2 14.5 0.6 c8 0.3 15.1 0.1 15.8 -0.4 0.6 -0.5 1.2 -2.1 1.2 -3.7z m136.7 -57.6 c-0.2 -1.6 -0.4 -0.3 -0.4 2.7 0 3 0.2 4.3 0.4 2.8 0.2 -1.6 0.2 -4 0 -5.5z m-207 -2 c-0.2 -1.6 -0.4 -0.5 -0.4 2.2 0 2.8 0.2 4 0.4 2.8 0.2 -1.3 0.2 -3.5 0 -5z m206 -44 c-0.3 -1 -0.5 -0.2 -0.5 1.7 0 1.9 0.2 2.7 0.5 1.8 0.2 -1 0.2 -2.6 0 -3.5z m-203.4 -47.3 c1 -1.6 2.2 -3 2.8 -3 0.5 0 0.9 -0.8 0.9 -1.7 0 -1.3 -1 -0.8 -3.5 1.9 -3.4 3.6 -4.4 5.8 -2.7 5.8 0.4 0 1.6 -1.3 2.5 -3z m204 1.3 c-0.8 -2.3 -4.4 -6.3 -5.5 -6.3 -1.1 0 4.4 7.9 5.4 8 0.4 0 0.5 -0.8 0.1 -1.7z m-176.3 -8.8 c1.9 -1.9 3.2 -3.5 2.9 -3.5 -0.3 0 -2 1.6 -3.9 3.5 -1.9 1.9 -3.2 3.5 -2.9 3.5 0.3 0 2 -1.6 3.9 -3.5z m24 -17.1 c0 -0.2 -1.3 0.2 -3 1.1 -1.6 0.9 -3 1.8 -3 2.1 0 0.2 1.4 -0.2 3 -1.1 1.7 -0.9 3 -1.8 3 -2.1z m51.7 -11.1 c-2 -0.2 -5.2 -0.2 -7 0 -1.7 0.2 0 0.4 3.8 0.4 3.9 0 5.3 -0.2 3.2 -0.4z"/>
  <path d="M183.8 356.3 c-1 -0.2 -1.8 -0.8 -1.8 -1.3 0 -1.2 -12.8 -13.4 -14.8 -14.1 -2.6 -1 -5.8 -5 -7.1 -8.8 -1.7 -5.2 -1.4 -12.5 0.7 -15 2.8 -3.5 15.2 -5.6 15.2 -2.6 0 0.8 1.1 1.7 2.4 2.1 2.5 0.6 6.7 4.7 7.9 7.7 0.3 0.9 1 1.7 1.4 1.7 0.5 0 7.8 -7 16.3 -15.5 8.5 -8.5 16 -15.5 16.7 -15.5 0.6 0 1.3 -0.5 1.5 -1.1 0.5 -1.4 7.8 -2.3 12.1 -1.5 2.6 0.5 3.6 1.3 4.7 4.1 0.8 1.9 1.7 3.5 2.2 3.5 0.4 0 0.8 1.8 0.8 4 0 2.2 -0.4 4 -1 4 -0.5 0 -1 0.6 -1 1.3 0 0.7 -9.7 10.9 -21.5 22.7 -11.8 11.8 -21.5 22 -21.5 22.6 0 2 -8.1 3.1 -13.2 1.7z m31.9 -25.6 c21.2 -21.2 22.3 -22.4 22.3 -26 0 -5.1 -1.3 -7.3 -5.1 -8.6 -2.3 -0.8 -3.8 -0.7 -6.2 0.3 -1.8 0.8 -10.8 9.2 -20.2 18.7 l-17 17.4 18.1 -17.8 c17.1 -16.8 18.2 -17.7 21.9 -17.7 5 0 7.5 2.3 7.5 6.9 0 3.4 -1.5 5.1 -22.3 25.9 -20.1 20 -22.5 22.2 -25.5 22.2 -3 0 -4.9 -1.5 -14.8 -11.2 -9.5 -9.4 -11.6 -11.9 -12.1 -15 -0.4 -3 -0.1 -4.1 2 -6.2 4.3 -4.3 6.8 -3.5 15.7 5 4.4 4.3 8.3 7.5 8.5 7.2 0.3 -0.3 -1.2 -2 -3.3 -3.9 -2.1 -1.9 -5.9 -5.3 -8.5 -7.6 -5.6 -5.1 -9.5 -5.6 -13.2 -1.8 -1.8 1.7 -2.5 3.5 -2.5 6.2 0 3.4 0.9 4.7 12.3 16 17.4 17.4 14.3 18.2 42.4 -10z"/>
  <path d="M242 208 c0 -2.9 0.7 -4.7 2.3 -6.4 3 -3 6.6 -11.3 7.3 -17 0.5 -3.5 0.2 -5.2 -1.7 -8.7 -2.6 -4.5 -6.4 -8.9 -7.9 -8.9 -0.5 0 -1.5 -0.8 -2.2 -1.7 -0.7 -1 -2.7 -2.5 -4.3 -3.4 -1.7 -0.8 -5.1 -2.7 -7.6 -4.2 l-4.7 -2.8 -0.7 4.8 c-0.7 5.3 -2.8 8.3 -5.7 8.3 -1 0 -1.8 0.7 -1.8 1.5 0 0.8 -0.7 1.5 -1.5 1.5 -2.7 0 -11.5 5 -11.5 6.4 0 2.5 1.2 4.6 2.6 4.6 0.8 0 1.4 0.7 1.4 1.5 0 0.8 0.9 1.5 1.9 1.5 1.1 0 2.6 0.7 3.5 1.5 0.8 0.8 2.8 1.5 4.5 1.5 4.1 0 16.1 -5 16.1 -6.7 0 -1.6 3.6 -1.7 9.7 -0.2 l4.5 1.2 -0.5 5 c-0.4 2.7 -1.3 5.7 -2.2 6.7 -0.8 0.9 -1.5 2.2 -1.5 2.8 0 0.7 -0.9 1.2 -2 1.2 -1.1 0 -2.3 0.7 -2.6 1.5 -0.4 0.8 -1.7 1.5 -2.9 1.5 -1.3 0 -2.5 0.5 -2.7 1.2 -0.6 1.6 -29.5 1.8 -30.6 0.2 -0.4 -0.6 -1.7 -1.6 -3 -2.3 -2.8 -1.5 -12.3 0.2 -14.7 2.6 -1 1 -2.8 1.4 -5 1.1 -1.9 -0.2 -3.6 0 -3.8 0.5 -0.4 1.2 -15.7 -0.1 -15.7 -1.3 0 -0.5 -1.7 -1.4 -3.7 -2 -2.1 -0.7 -5.9 -2.6 -8.5 -4.3 -4.8 -3.2 -4.8 -3.2 -4.8 -8.8 l0 -5.7 4.4 -1.1 c6.7 -1.7 9 -1.4 10.1 1.1 0.6 1.3 2.4 2.6 4.3 3 1.7 0.5 3.2 1.3 3.2 1.8 0 3.2 16.9 -0.8 20 -4.7 2.3 -2.9 2.6 -6.3 0.6 -6.3 -0.7 0 -2.5 -1.1 -4 -2.5 -1.5 -1.4 -3.4 -2.5 -4.2 -2.5 -0.8 0 -2.7 -1.3 -4.1 -3 -1.3 -1.6 -3.1 -3 -3.8 -3 -0.8 0 -1.6 -1.9 -2 -5 -0.4 -2.7 -0.9 -5 -1.1 -5 -2.5 0 -16 8.7 -22.5 14.5 -3.2 2.9 -6.9 8.9 -6.9 11.4 0 0.6 -1.6 1.1 -3.5 1.1 -3.3 0 -3.5 -0.2 -3.5 -3.5 0 -4 2.4 -10.5 3.8 -10.5 0.5 0 1.2 -0.9 1.5 -1.9 1.1 -4.3 25.5 -20.1 31.1 -20.1 1.4 0 2.9 -0.6 3.2 -1.4 0.3 -0.8 2.7 -2.5 5.2 -3.7 4.3 -2.1 6.1 -2.3 19.7 -2.4 16.1 0 23.4 1.5 27 5.5 1 1.1 2.3 2 3 2 1.6 0 16 7.9 18.4 10.2 1.1 1 2.5 1.8 3 1.8 0.5 0 1.6 0.8 2.3 1.8 0.7 1 2.1 2.1 3.1 2.5 1.1 0.4 2.1 1.6 2.4 2.7 0.3 1.1 1 2 1.5 2 2 0 4.8 8.6 4.8 15.1 0 6.8 -2.9 18.6 -5.3 21.1 -1.8 2 -3.7 5.1 -4.3 7.1 -0.5 1.2 -1.7 1.7 -4 1.7 -3.3 0 -3.4 -0.1 -3.4 -4z m-54.2 -10.8 l6.1 -3.1 6.2 3.2 c5.8 3 6.9 3.2 16.3 3.2 9.5 0 10.6 -0.2 16.9 -3.3 7.9 -3.9 10.5 -7 9.1 -11 -1.3 -3.7 -5.2 -4.1 -9 -0.9 -6.8 5.6 -14.4 7.5 -21.8 5.2 -5.9 -1.7 -8.6 -3.8 -11.5 -8.6 -3.5 -5.7 -2.9 -7 5.3 -11.2 9.4 -4.8 15.6 -11.2 15.6 -16.1 0 -1.9 -0.3 -3.7 -0.7 -3.9 -0.5 -0.3 -0.8 1.5 -0.8 4 -0.1 4.1 -0.5 5 -4.3 8.3 -2.3 2 -7.3 5.4 -11.2 7.4 -7.8 4.1 -8.3 5.2 -5 11.6 2.3 4.6 7.6 8.3 13.9 10 5.8 1.5 12.6 -0.1 19.1 -4.6 5.3 -3.7 6.9 -4.1 8.8 -2.2 1.9 1.9 1.4 4.2 -1.5 7.1 -9.1 8.6 -30.3 10.3 -40.9 3.1 -4.2 -2.9 -4.8 -2.9 -8.2 -0.5 -10.2 7 -29.7 6.6 -40.2 -0.9 -3.4 -2.4 -4.8 -6.3 -3 -8.5 1.9 -2.2 3.5 -1.9 8.4 1.9 8.5 6.5 18.9 6.9 27.8 1 3.8 -2.4 7.8 -8.8 7.8 -12.1 -0.1 -1 -0.7 0 -1.5 2.2 -0.8 2.2 -3.2 5.6 -5.5 7.7 -8 7.1 -19.7 7.2 -28.1 0.2 -5 -4.1 -8.5 -4.4 -10.1 -0.8 -2.2 4.8 2.6 10.1 12.3 13.5 4.2 1.5 7.5 1.9 14.5 1.6 8 -0.2 10 -0.7 15.2 -3.5z m-3.8 -27.2 c-9.7 -5.2 -14 -9.5 -14.7 -14.8 -0.5 -3.6 -0.2 -4.4 2.3 -6.8 2.3 -2.1 2.4 -2.4 0.7 -1.5 -7.3 3.8 -5 13.9 4.5 19.9 5.9 3.7 12.4 7.1 13.7 7.1 0.6 0 -2.4 -1.7 -6.5 -3.9z"/>
  <path d="M133.8 149.4 c-1.6 -0.8 -2.8 -2.1 -2.8 -2.8 0 -0.8 -0.6 -1.6 -1.2 -1.8 -0.9 -0.3 -1.3 -3.3 -1.3 -10 0 -9.4 0 -9.5 3.4 -12.8 2.8 -2.9 4.2 -3.4 9 -3.7 10 -0.7 15.1 4.8 15.1 16.2 0 11.1 -4.6 16.5 -13.9 16.5 -3.1 -0.1 -6.8 -0.8 -8.3 -1.6z"/>
  <path d="M237.8 149.4 c-4.3 -2.3 -5.8 -6.3 -5.8 -15.3 0 -7.9 0 -8.1 3.7 -11.8 3.1 -3.1 4.6 -3.7 8.9 -4.1 3.5 -0.3 6.1 0.1 8.3 1.3 8.7 4.4 9.6 23 1.6 29.3 -3.3 2.6 -12.4 3 -16.7 0.6z"/>
 </g>
 <g fill="#a384d6">
  <path d="M69.9 361.7 c-9.1 -3.4 -14.7 -9.4 -16.4 -17.6 -1.3 -6.4 -0.6 -21.7 1.5 -32.2 3 -14.6 8 -29 16 -45.9 8.2 -17.3 13.1 -31.9 16.5 -48.9 3.5 -17.8 4.2 -26.6 4.4 -51.6 0.2 -24.2 1 -30.2 6 -43.1 6.1 -15.7 21 -34.3 35.5 -44.3 26.8 -18.5 67.5 -22.8 99.8 -10.7 25.7 9.7 47.4 30.8 57.1 55.6 4.6 11.8 5.7 20 5.7 43.7 0 42.2 4.9 65.6 21 100.3 11.9 25.7 16.7 42.2 17.7 61.5 0.7 14.7 -1 21.2 -7.3 27.2 -6 5.8 -11.6 7.3 -26.9 7.3 -14.3 0 -20.6 -1.5 -28.3 -6.7 -10.9 -7.4 -13.8 -19 -7.7 -30.2 1.7 -3 4.7 -6.6 6.7 -8.1 3.6 -2.6 13.8 -6.2 21.1 -7.5 7.4 -1.2 10.1 -7.4 5.1 -11.4 -3.6 -2.8 -6.2 -2.7 -20.2 0.4 l-2.2 0.5 0.1 -16.8 c0 -18.5 -0.7 -22 -5.9 -27.6 -3.5 -3.7 -9.7 -6.6 -14.4 -6.6 -2.7 0 -3.8 -0.4 -3.8 -1.5 0 -0.8 -0.5 -1.5 -1.1 -1.5 -1.8 0 -6.8 -12.3 -8 -20 -1.3 -8.6 -0.7 -22.2 1 -22.8 0.6 -0.2 1.1 -0.8 1.1 -1.4 0 -0.5 0.9 -2.1 2 -3.6 1.1 -1.4 3 -5.6 4.1 -9.3 l2.1 -6.9 -2.1 -4.2 c-2.2 -4.4 -7.3 -10.3 -10.7 -12.5 -9 -5.7 -13.7 -8.2 -14.4 -7.8 -0.4 0.2 -1 1.8 -1.3 3.5 -0.5 2.4 -1.2 3 -3.2 3 -2 0 -2.5 0.5 -2.5 2.5 0 2.1 -0.5 2.5 -3 2.5 -2.2 0 -3 0.5 -3 1.8 0 1.1 -1.7 2.6 -4.6 4 -3.3 1.6 -4.4 2.7 -4 3.8 0.3 0.9 0.6 2.4 0.6 3.5 0 1.4 0.7 1.9 2.5 1.9 1.6 0 2.5 0.6 2.5 1.5 0 1 1.1 1.5 3.5 1.5 2.8 0 3.5 0.4 3.5 2 0 3.8 -7.4 1.6 -13.2 -3.8 -2.9 -2.7 -5.4 -8.5 -4.3 -10.2 0.4 -0.6 3.4 -2.4 6.8 -4.2 11.6 -5.8 15.7 -10.3 15.7 -17.1 0 -4.1 -3.6 -7.9 -10 -10.4 -6.2 -2.4 -27.8 -2.4 -33.1 0 -6.5 2.9 -9.9 6.5 -9.9 10.3 0 6.9 3.9 11.2 15.8 17.5 6.5 3.4 6.9 4 5.1 8.6 -1.5 4 -4.8 7.3 -9.4 9.4 -5.2 2.4 -7.5 2.4 -7.5 -0.1 0 -1.4 0.9 -2.1 3.4 -2.6 1.9 -0.3 3.7 -1.2 4 -2 0.3 -0.8 1.4 -1.4 2.4 -1.4 1.4 0 2.1 -0.9 2.6 -3.1 1 -5.1 0.8 -5.9 -1.9 -5.9 -2.7 0 -7.5 -1.9 -7.5 -3 0 -0.4 -0.9 -1 -2 -1.3 -1.4 -0.3 -2 -1.4 -2 -3.1 0 -2.1 -0.5 -2.6 -2.5 -2.6 -2 0 -2.6 -0.7 -3.5 -4 l-1.1 -4 -3.2 1.6 c-1.8 0.9 -5.1 3 -7.4 4.5 -2.3 1.6 -4.4 2.9 -4.7 2.9 -1.1 0 -9.2 9.3 -10.9 12.7 -1.6 3 -1.7 4.2 -0.7 8.5 1.1 5.4 5.5 14.6 7.9 16.4 1.1 0.8 1.2 3.9 0.9 14.5 -0.5 14.3 -2 20 -7.2 27.9 -2.2 3.3 -3 3.8 -7.6 4.2 -6.8 0.7 -12.6 4.8 -15.9 11.3 -2.4 4.6 -2.6 6 -3 22.3 -0.2 14.7 -0.5 17.3 -1.8 16.8 -3.2 -1.3 -14.5 -2.6 -16.8 -2 -2.8 0.7 -5.5 3.9 -5.5 6.6 0 3.1 4.1 5.6 11.9 7.3 15.2 3.4 22.2 8.4 25.5 18.3 2 5.7 2 7.5 0.1 14 -2 6.5 -6.9 11.5 -15.5 15.6 -6.3 3 -7.1 3.1 -21.5 3.3 -10.7 0.2 -16 -0.1 -18.6 -1z m175.8 -143.9 c-0.2 -1.3 -0.4 -0.3 -0.4 2.2 0 2.5 0.2 3.5 0.4 2.3 0.2 -1.3 0.2 -3.3 0 -4.5z m-105.1 -52 l2.9 -3.3 -3.2 2.9 c-3.1 2.8 -3.8 3.6 -3 3.6 0.2 0 1.6 -1.5 3.3 -3.2z m25.4 -16.3 c0 -0.3 -1.8 0.4 -4 1.5 -2.2 1.1 -4 2.3 -4 2.5 0 0.3 1.8 -0.4 4 -1.5 2.2 -1.1 4 -2.3 4 -2.5z m-17.5 -4.8 c6.3 -6.3 5.6 -16.7 -1.5 -21.5 -6.8 -4.6 -14.9 0.3 -15.8 9.6 -1.1 12.4 9.5 19.7 17.3 11.9z m104 0 c4.4 -4.4 5.3 -9.3 3 -15.3 -3.4 -8.8 -11 -10.6 -17.2 -3.9 -2.8 3 -3.3 4.2 -3.3 8.5 0 6.1 2 10.4 5.8 12.4 4.5 2.5 8 2 11.7 -1.7z"/>
  <path d="M250.3 361.5 c-0.7 -0.8 -1.3 -1.7 -1.3 -2 0 -0.4 -0.7 -1.3 -1.5 -2.1 -0.8 -0.9 -1.5 -2.8 -1.5 -4.4 0 -1.6 -0.5 -3 -1 -3.2 -0.6 -0.2 -1.4 -2.9 -1.7 -6.1 -0.5 -4.8 -0.3 -5.7 1 -5.7 1.1 0 1.9 1.7 2.7 5.8 1.4 6.5 3.7 11.6 7.5 16.1 l2.7 3.1 -2.9 0 c-1.5 -0.1 -3.4 -0.7 -4 -1.5z"/>
  <path d="M135 357.4 c8.5 -13.5 8.3 -29.5 -0.6 -42.4 l-3.4 -5 3 0 c2.7 0 3 0.3 3 3 0 2.3 0.5 3 1.9 3 5.5 0 7.7 25.7 3.2 37.3 -1.2 3.1 -2.7 5.7 -3.2 5.7 -0.5 0 -0.9 0.7 -0.9 1.5 0 1 -1 1.5 -3 1.5 l-3 0 3 -4.6z"/>
  <path d="M184 355.5 c0 -0.9 -0.9 -1.5 -2.3 -1.5 -1.5 0 -4.5 -2.3 -8.6 -6.4 -5.2 -5.3 -6.2 -6.8 -5.9 -9.2 0.3 -2.9 0.5 -2.7 9.6 6.1 11.7 11.1 13.6 11.5 21.2 4 l5 -4.9 0 3.5 c0 4.2 -1.5 5.9 -5.2 5.9 -2.1 0 -2.8 0.5 -2.8 2 0 1.8 -0.7 2 -5.5 2 -4.2 0 -5.5 -0.3 -5.5 -1.5z"/>
  <path d="M35.2 340.6 c-3 -4.4 -5.8 -11.9 -6.7 -17.9 -0.7 -4.3 -0.5 -4.7 1.3 -4.7 1.7 0 2.1 0.9 2.7 6 0.4 3.3 1 6 1.4 6 1.5 0 4.2 7.7 3.9 10.8 l-0.3 3.2 -2.3 -3.4z"/>
  <path d="M349.6 340.3 c0.3 -2.1 1.8 -6.5 3.2 -9.8 l2.7 -6 0 -132.5 0 -132.5 -3 -6.5 c-1.6 -3.6 -3.5 -6.9 -4.2 -7.3 -0.7 -0.4 -1.3 -2.4 -1.3 -4.2 0 -3.3 -0.2 -3.5 -3.5 -3.5 -1.9 0 -3.5 -0.4 -3.5 -1 0 -0.5 -0.7 -1 -1.5 -1 -0.9 0 -1.5 -0.9 -1.5 -2.5 0 -3.2 0.8 -3.1 5.6 0.3 9 6.6 14.5 15.7 16.3 27.2 0.7 4.3 1.1 49.5 1.1 132 0 136.6 0.1 133.6 -5.6 144 -3.9 7.1 -5.4 8.2 -4.8 3.3z"/>
  <path d="M243 332.9 c0 -4.1 2 -11.9 3.1 -11.9 0.5 0 0.9 -1.1 0.9 -2.5 0 -1.8 0.5 -2.5 2 -2.5 1.6 0 2 -0.7 2 -3 0 -2.5 0.4 -3 2.5 -3 l2.5 0 0 -20 c0 -17.1 -0.2 -20 -1.5 -20 -0.8 0 -1.5 -0.9 -1.5 -2 0 -2.8 3.5 -2.6 5.4 0.2 1.3 1.8 1.6 5.6 1.6 20.5 l0 18.3 -4.4 5.4 c-4.4 5.4 -7.7 12.8 -9 19.9 -0.9 4.6 -3.6 5.2 -3.6 0.6z"/>
  <path d="M158.4 331.5 c-2.5 -6.1 -1.5 -14.5 1.7 -14.5 1.2 0 1.9 -0.7 1.9 -1.9 0 -1.1 0.9 -2.1 2.3 -2.5 3.5 -0.9 8.7 -0.7 8.7 0.4 0 0.6 1.1 1 2.4 1 3 0 4.8 2.2 4.4 5.5 l-0.3 2.6 -3.5 -3 c-9.5 -8.2 -19.6 1.7 -12.5 12.2 l2.6 3.7 -3.1 0 c-2.6 0 -3.3 -0.6 -4.6 -3.5z"/>
  <path d="M35 321.2 c0 -6.7 7.4 -37.2 9 -37.2 0.4 0 1 -1.8 1.4 -4 0.3 -2.2 1.1 -4 1.6 -4 0.6 0 1 -0.8 1 -1.9 0 -2.5 4.1 -12.1 5.1 -12.1 0.5 0 0.9 -1.1 0.9 -2.4 0 -1.4 0.7 -3.1 1.5 -4 0.8 -0.8 1.5 -2.2 1.5 -3.1 0 -1.6 1.8 -5.6 2.9 -6.5 0.4 -0.3 1.2 -2.7 1.9 -5.5 0.7 -2.7 1.7 -5.1 2.3 -5.3 0.5 -0.2 0.9 -1.3 0.9 -2.5 0 -1.2 1.1 -5.6 2.4 -9.8 1.3 -4.3 3 -10.9 3.7 -14.8 1 -5.8 1.6 -7.1 3.1 -7.1 2.2 0 2.2 -0.3 -0.2 11.6 -2.8 13.7 -8 28.9 -16.7 48.9 -9.2 21.1 -14.5 36.8 -17.2 50.8 -1.2 5.9 -2.1 11 -2.1 11.3 0 0.2 -0.7 0.4 -1.5 0.4 -1 0 -1.5 -1 -1.5 -2.8z"/>
  <path d="M350 323.4 c0 -0.3 -0.9 -4.9 -2 -10.2 -3.4 -16.9 -8 -30.3 -17.1 -50.4 -2.8 -6.2 -5.9 -13.4 -7 -16 l-1.9 -4.8 2.3 0 c1.9 0 2.8 1.1 4.5 5.3 1.2 2.9 2.2 6 2.2 7 0 0.9 0.4 1.7 0.8 1.7 1.3 0 3.2 4.8 3.2 8 0 1.9 0.5 3 1.4 3 1.5 0 2.6 2.1 2.6 5.1 0 1 0.4 1.9 0.8 1.9 1 0 4.2 8.8 4.2 11.8 0 1.2 0.4 2.2 0.8 2.2 1.1 0 4.6 12.1 6.6 22.9 2 10.5 2 13.1 0.1 13.1 -0.8 0 -1.5 -0.3 -1.5 -0.6z"/>
  <path d="M237.2 308.1 c1.8 -3.6 1.8 -4.2 0.4 -7.5 -2.5 -6 -8.5 -7 -14.8 -2.5 l-2.8 2 0 -3 c0 -2.4 0.4 -3.1 2 -3.1 1.1 0 2 -0.4 2 -1 0 -0.6 2.7 -1 6 -1 5.3 0 6 0.2 6 2 0 1.4 0.7 2 2.4 2 2.9 0 3.6 1.6 3.6 8 0 6.6 -0.7 8 -4 8 l-2.7 0 1.9 -3.9z"/>
  <path d="M128 303.5 c0 -2.8 0.4 -3.5 2 -3.5 1.6 0 2 0.7 2 3.5 0 2.8 -0.4 3.5 -2 3.5 -1.6 0 -2 -0.7 -2 -3.5z"/>
  <path d="M163 283 c0 -0.5 -0.7 -1 -1.5 -1 -0.9 0 -1.9 -0.8 -2.2 -1.7 -0.4 -1 -1 -2.1 -1.5 -2.4 -0.5 -0.3 -1.2 -3.1 -1.5 -6.2 -0.5 -5.3 -0.4 -5.7 1.6 -5.7 1.8 0 2.1 0.6 2.1 4.1 0 3.3 0.6 4.7 3.4 7.5 1.9 1.9 4.1 3.4 5 3.4 0.9 0 1.6 0.7 1.6 1.5 0 1 -1.1 1.5 -3.5 1.5 -1.9 0 -3.5 -0.4 -3.5 -1z"/>
  <path d="M217 282.8 c0.1 -0.7 2.1 -2.2 4.5 -3.4 l4.5 -2.1 0 2.7 c0 3 -1.5 4 -6.1 4 -1.7 0 -2.9 -0.5 -2.9 -1.2z"/>
  <path d="M226.8 271 c0.3 -4.1 0.7 -5 2.3 -5 1.6 0 1.9 0.8 1.9 5 0 4.5 -0.2 5 -2.2 5 -2.1 0 -2.3 -0.4 -2 -5z"/>
  <path d="M128 272.2 c0 -3.1 2.7 -6.2 5.3 -6.2 1 0 1.7 0.8 1.7 2 0 1.1 -0.7 2 -1.5 2 -0.9 0 -1.5 0.9 -1.5 2.5 0 1.8 -0.5 2.5 -2 2.5 -1.5 0 -2 -0.7 -2 -2.8z"/>
  <path d="M156 245 c0 -3.5 0.3 -4 2.3 -4 2 0 2.2 0.4 1.9 4 -0.3 3.1 -0.8 4 -2.3 4 -1.5 0 -1.9 -0.7 -1.9 -4z"/>
  <path d="M227 246 c0 -2.3 0.4 -3 2 -3 1.6 0 2 0.7 2 3 0 2.3 -0.4 3 -2 3 -1.6 0 -2 -0.7 -2 -3z"/>
  <path d="M320.4 237.5 c-2.7 -6.6 -7.4 -26.5 -8.9 -38.1 -1.9 -14.5 -1.9 -14.4 0.5 -14.4 1.6 0 2 0.7 2 3.1 0 6.7 3.3 24.7 6.6 36.1 3.5 12.4 4.2 16.8 2.3 16.8 -0.5 0 -1.7 -1.6 -2.5 -3.5z"/>
  <path d="M162 236 c0 -2 0.6 -2.9 2.3 -3.4 4.1 -1.1 7.7 -0.7 7.7 0.9 0 0.8 -0.6 1.5 -1.3 1.5 -0.7 0 -2.9 0.9 -5 1.9 l-3.7 1.9 0 -2.8z"/>
  <path d="M217.3 235.8 c-4.5 -1.5 -4.3 -3.8 0.2 -3.8 3.1 0 3.5 0.3 3.5 2.5 0 1.4 -0.1 2.5 -0.2 2.4 -0.2 -0.1 -1.8 -0.6 -3.5 -1.1z"/>
  <path d="M161.5 204.4 c-5.5 -1.4 -11.7 -3.7 -12.8 -4.7 -0.7 -0.7 -2.2 -1.7 -3.2 -2.3 -1.3 -0.7 -2.1 -2.4 -2.3 -4.8 -0.2 -2 -0.1 -3.6 0.3 -3.6 0.3 0 1.9 1.5 3.5 3.4 8.3 9.4 27.8 11.7 41.1 4.8 l5.7 -3 6.7 3.4 c6.1 3.1 7.6 3.4 15.1 3.4 12.6 0 24.4 -4.9 26.7 -11.1 1.6 -4.1 3.7 -3.7 3.7 0.6 0 3.1 -0.3 3.5 -2.5 3.5 -2 0 -2.5 0.5 -2.5 2.5 0 1.9 -0.7 2.6 -2.7 3.1 -1.5 0.4 -3.3 1.3 -4 1.9 -2 2.1 -14 3.8 -22.4 3.2 -5.4 -0.3 -9.5 -1.3 -13.5 -3.1 -3.5 -1.6 -6 -2.3 -6.4 -1.7 -1.9 3.2 -23.4 6.3 -30.5 4.5z"/>
  <path d="M73 196 c0 -3.3 0.3 -4 2 -4 2.1 0 2.5 1.6 1.4 5.8 -1.1 3.9 -3.4 2.7 -3.4 -1.8z"/>
  <path d="M74 186 c0 -4.3 0.3 -5 2 -5 1.5 0 2 0.7 2 2.8 0 4.2 -1.1 7.2 -2.6 7.2 -1 0 -1.4 -1.4 -1.4 -5z"/>
  <path d="M160.5 189.3 c-1.6 -0.8 -4.2 -2.7 -5.7 -4 -2 -1.9 -3.4 -2.4 -5.7 -2.1 -2.7 0.4 -3.1 0.2 -3.1 -1.9 0 -2 0.5 -2.3 4 -2.3 3.6 0 4 0.3 4 2.5 0 2.2 0.4 2.5 3.5 2.5 2.4 0 3.5 0.5 3.5 1.5 0 1 1.1 1.5 3.5 1.5 2.8 0 3.5 0.4 3.5 2 0 2.5 -3.2 2.6 -7.5 0.3z"/>
  <path d="M219 189.1 c0 -1.9 2.5 -3.1 6.6 -3.1 1.3 0 2.4 -0.8 2.7 -2 0.3 -1.4 1.4 -2 3.1 -2 1.6 0 2.6 -0.6 2.6 -1.5 0 -1.1 1.2 -1.5 4.5 -1.5 4.4 0 4.5 0.1 4.5 3.2 0 2.5 -0.3 2.9 -1.2 2 -1.7 -1.7 -6.3 -1.5 -7.9 0.5 -1.7 1.9 -10.7 6.3 -13.1 6.3 -1.1 0 -1.8 -0.8 -1.8 -1.9z"/>
  <path d="M309.6 165.8 c-0.3 -1.3 -0.6 -6.5 -0.6 -11.5 0 -8.6 0.1 -9.3 2 -9.3 1.9 0 2 0.7 2 11.5 0 9.1 -0.3 11.5 -1.4 11.5 -0.7 0 -1.6 -1 -2 -2.2z"/>
  <path d="M75.4 144.8 c0.3 -4.6 1.3 -11.2 2.1 -14.7 1.5 -6.2 1.5 -6.5 -0.5 -8.6 -1.1 -1.2 -2 -3.3 -2 -4.8 0 -2 -0.5 -2.7 -1.8 -2.7 -2 0 -4.2 -5.4 -4.2 -10.4 0 -4.6 2.6 -2.8 4.4 3 1.2 3.8 3.3 7.3 6.3 10.5 l4.4 4.7 -1.9 6.4 c-1.1 3.5 -2.3 9.1 -2.6 12.3 -1.2 11 -1.6 12.5 -3.3 12.5 -1.4 0 -1.5 -1.1 -0.9 -8.2z"/>
  <path d="M308.5 140.3 c-0.3 -2.1 -1.6 -7.2 -2.9 -11.4 -2.2 -7.2 -2.2 -7.7 -0.5 -8.7 1.5 -0.9 1.9 -0.6 2.8 2 0.6 1.7 1.1 4.3 1.1 5.9 0 1.5 0.4 2.9 0.9 3.1 0.5 0.2 1.3 3.1 1.7 6.6 0.6 5.3 0.4 6.2 -0.9 6.2 -1.1 0 -1.8 -1.3 -2.2 -3.7z"/>
  <path d="M311.1 113.3 c1.6 -2.7 3.5 -6.7 4.1 -9 1.3 -5.3 3.8 -5.8 3.8 -0.8 0 1.9 -0.4 3.5 -1 3.5 -0.5 0 -1 1.3 -1 2.9 0 1.6 -0.7 3.6 -1.5 4.5 -0.8 0.8 -1.5 1.9 -1.5 2.5 0 0.6 -1.3 1.1 -3 1.1 l-3 0 3.1 -4.7z"/>
  <path d="M88.5 103 c-2.5 -4.8 -1.9 -9.4 1.6 -13.5 2.6 -3 3.7 -3.5 7.3 -3.5 7 0 7.1 0.8 0.6 9.9 -3.3 4.6 -6 8.7 -6 9.2 0 1.9 -2 0.7 -3.5 -2.1z"/>
  <path d="M292.6 99.8 c-2.1 -3.3 -5.2 -7.6 -6.8 -9.4 l-2.9 -3.3 3.7 -1 c9.6 -2.7 17.9 8.2 12.8 16.8 -1 1.7 -2.1 3.1 -2.4 3.1 -0.3 0 -2.3 -2.8 -4.4 -6.2z"/>
  <path d="M314.6 89.9 c-2 -7.2 -8.3 -14.6 -15.1 -17.8 -7.8 -3.7 -21.2 -2.4 -26.6 2.5 -1.5 1.4 -2.3 1 -8.2 -3.5 -16.8 -12.6 -32.3 -18.7 -57.9 -22.6 -2.6 -0.4 -3.8 -1.1 -3.8 -2.2 0 -1.4 1 -1.5 7.6 -0.9 8.8 0.8 26.7 5.2 27.2 6.6 0.2 0.6 1.5 1 2.8 1 1.5 0 2.4 0.6 2.4 1.5 0 1 1.1 1.5 3.5 1.5 2.8 0 3.5 0.4 3.5 2 0 1.6 0.7 2 3.4 2 1.9 0 4.1 0.7 5 1.5 0.8 0.8 1.9 1.5 2.5 1.5 0.6 0 1.1 0.5 1.1 1 0 0.6 0.7 1 1.5 1 0.8 0 1.5 0.5 1.5 1 0 0.6 0.7 1 1.6 1 0.9 0 1.8 0.9 2.1 2 0.6 2.1 2.9 2.7 3.5 0.9 0.5 -1.6 10.4 -3.9 16.3 -3.9 6.1 0.1 12.8 1.5 13.3 2.9 0.2 0.6 1.2 1.1 2.3 1.1 1 0 1.9 0.5 1.9 1 0 0.6 0.6 1 1.3 1 2.2 0 5.7 4.5 5.7 7.3 0 2 0.5 2.7 1.8 2.7 2.1 0 4.2 5.5 4.2 10.9 0 5.3 -2.5 3.6 -4.4 -3z"/>
  <path d="M69 91 c0 -3.5 2.8 -11 4.1 -11 0.5 0 0.9 -0.7 0.9 -1.5 0 -1 1 -1.5 3 -1.5 2.7 0 3 -0.3 3 -3 0 -2 0.5 -3 1.5 -3 0.8 0 1.5 -0.4 1.5 -1 0 -0.5 1.1 -1 2.4 -1 1.3 0 2.6 -0.5 2.8 -1.1 1 -2.9 24.8 -1.7 24.8 1.2 0 0.5 1.6 0.9 3.5 0.9 2.4 0 3.5 -0.5 3.5 -1.5 0 -0.8 0.9 -1.5 2 -1.5 1.1 0 2 -0.7 2 -1.5 0 -0.8 0.7 -1.5 1.5 -1.5 0.8 0 1.5 -0.4 1.5 -1 0 -0.5 1.1 -1 2.5 -1 1.6 0 2.5 -0.6 2.5 -1.5 0 -0.9 1.2 -1.8 3 -2.1 1.7 -0.4 3 -1 3 -1.4 0 -1.3 14.3 -6.9 23.1 -9 4.6 -1.1 11.6 -2.3 15.6 -2.6 6.3 -0.6 7.3 -0.5 7.3 0.9 0 1 -1.2 1.8 -3.2 2.1 -14.5 2.3 -18.2 3 -24.6 5.2 -10.8 3.6 -23.2 10 -31.8 16.5 l-7.8 5.8 -2.5 -1.8 c-4.1 -2.8 -8.9 -4.1 -15.6 -4.1 -11.4 0 -21 7.3 -25.2 19 -2 5.6 -4.3 6.6 -4.3 2z"/>
  <path d="M28.4 61.9 c1 -7.1 4 -14.8 7.5 -18.9 l3 -3.5 0.1 3.7 c0 2 -0.4 3.8 -0.8 4 -1.5 0.5 -6.2 13.4 -6.2 16.7 0 2.5 -0.4 3.1 -2.1 3.1 -2 0 -2.1 -0.4 -1.5 -5.1z"/>
  <path d="M43.8 35 c4 -3.7 5.4 -3.8 5 -0.2 -0.3 2.4 -0.8 2.7 -4.3 3 l-4 0.2 3.3 -3z"/>
  <path d="M52 31.1 c0 -1.6 5.3 -3.7 11.3 -4.6 4.3 -0.7 4.7 -0.5 4.7 1.3 0 1.5 -0.9 2.1 -3.7 2.6 -11.4 1.8 -12.3 1.8 -12.3 0.7z"/>
  <path d="M327.5 31 c-1.1 -0.5 -3.2 -0.9 -4.7 -0.9 -2.2 -0.1 -2.8 -0.6 -2.8 -2.2 0 -2 0.4 -2.1 4.5 -1.6 5.4 0.8 11.5 3.2 11.5 4.6 0 1.3 -5.6 1.3 -8.5 0.1z"/>
 </g>
 <g fill="#f0eaf0">
  <path d="M134 359.2 c11.2 -13.9 10 -34.2 -2.7 -48.3 l-3.3 -3.6 0.3 -19.2 c0.2 -17.8 0.4 -19.4 2.1 -20.7 1.5 -1 5.4 -1.4 15.2 -1.4 l13.2 0 0.6 4.5 c0.5 3 1.7 5.4 3.7 7.5 l3.1 3 27.2 0 c29.7 0 30 -0.1 33.1 -6 0.8 -1.6 1.5 -4.3 1.5 -6 l0 -3 13.6 0 c7.4 0 14.4 0.5 15.5 1 1.8 1 1.9 2.3 1.9 21.4 0 17.4 -0.2 20.5 -1.6 21.7 -5.6 4.6 -11.4 18.3 -11.4 26.8 0 6.5 2.9 15.7 6.9 21.4 l3.2 4.7 -62.6 0 -62.6 0 3.1 -3.8z m60.6 -7.5 c1.6 -1.2 12.2 -11.7 23.7 -23.3 18.3 -18.7 20.7 -21.5 20.7 -24.3 0 -6.5 -7.5 -11 -13.3 -8 -1.2 0.6 -10 8.8 -19.4 18.2 l-17.3 17.2 -7.2 -7.2 c-4 -4 -8.5 -7.7 -10 -8.2 -6.6 -2.5 -13.3 4.8 -10.8 11.5 1.2 3.2 16.2 18.9 22.4 23.5 4.7 3.5 7.3 3.6 11.2 0.6z"/>
  <path d="M36.4 341.9 c-2.8 -3.5 -6.4 -12.2 -7.4 -18 -0.8 -4.5 -1 -45.3 -0.8 -135.9 l0.3 -129.5 2.3 -5.6 c4.5 -11.1 12.9 -19.6 23.9 -24.1 l5.8 -2.3 129.9 -0.3 c86.1 -0.2 131.8 0.1 135.5 0.8 12.8 2.4 23.7 10.8 29.4 22.8 l3.2 6.7 0 135.6 0 135.5 -4 8 -4 7.9 -0.6 -13.5 c-1 -21.7 -5.4 -37.2 -20.3 -71 -14.9 -34 -18.2 -49.6 -19.6 -91 -1 -27.8 -1 -28.5 -4.2 -39.3 l-1.9 -6.8 4.5 -4.9 c6.9 -7.8 9.4 -18.3 6.5 -28 -1.8 -5.9 -7.8 -13 -13.9 -16.4 -4.7 -2.6 -6.5 -3 -12.6 -3 -5.8 0 -8.1 0.5 -12.4 2.7 -4.4 2.3 -5.6 2.6 -7 1.5 -18.8 -13.9 -34.6 -21 -54.1 -24.4 -14.2 -2.5 -39 -1.5 -52.4 2 -12.1 3.2 -27.3 10.5 -37.8 18.1 l-7.7 5.6 -5.3 -2.5 c-7.4 -3.6 -13.3 -4.2 -20.1 -2.1 -7.2 2.3 -13.7 8 -17.2 15 -2.3 4.8 -2.6 6.4 -2.2 13.2 0.4 9 2.4 13.7 7.9 19.5 l3.8 4 -1.5 4.1 c-2.9 8.2 -4.4 20.9 -4.4 37.2 0 37.8 -5 61.8 -19.5 94.5 -14.4 32.4 -19.4 49.8 -20.4 70.9 -0.4 11 -0.9 14.1 -1.7 13z"/>
  <path d="M132.9 245.5 c6.6 -7.6 10.1 -18.2 10.1 -30.8 0 -6.8 -0.3 -8.3 -2.5 -11.1 -3.9 -5.1 -6.5 -12 -7.2 -18.9 -0.4 -5.2 -0.2 -7 1.5 -10.2 3.6 -7 12.1 -14 26.6 -21.9 l6.9 -3.7 -0.6 2.7 c-1.3 7 4 13.7 15.5 19.5 3.5 1.7 6.5 3.3 6.7 3.5 0.2 0.2 -0.4 2.4 -1.3 4.8 -3 7.8 -11.5 12.3 -21.4 11.3 -5.1 -0.5 -6.7 -1.3 -14.9 -7.3 -2.1 -1.5 -2.5 -1.5 -4.8 0 -6 3.9 -1.5 11.6 9.2 15.6 11.5 4.3 24.7 3.3 33.6 -2.6 3.5 -2.3 4 -2.4 5.6 -1 2.9 2.6 10.5 5.5 16.2 6.2 17.2 2 37.3 -10.5 29.1 -17.9 -2.5 -2.3 -3.3 -2.2 -8.2 1.4 -13.9 10.1 -30 6.4 -34.4 -7.8 -0.6 -1.9 0.2 -2.6 6.3 -5.8 9.6 -5 14.8 -9.8 16.1 -14.5 0.6 -2.1 0.7 -4.6 0.3 -5.6 -0.5 -1.4 0.9 -0.9 6.3 2 19.4 10.7 27.4 19.1 27.4 29 0 5.2 -3.6 15.6 -7 20.2 -3.7 5.2 -4.6 10.7 -3.1 20.4 1.3 8.6 5.4 18 9.8 22.8 l3.1 3.2 -14.8 0 -14.8 0 -0.7 -3 c-0.8 -3.7 -3.9 -7.6 -7.5 -9.5 -3.9 -2 -50.1 -2.2 -54 -0.2 -3.1 1.6 -7 7.3 -7 10.3 l0 2.4 -14.6 0 -14.6 0 3.1 -3.5z"/>
 </g>
</svg>